G04 #@! TF.GenerationSoftware,KiCad,Pcbnew,(5.1.6)-1*
G04 #@! TF.CreationDate,2022-01-22T19:31:02+00:00*
G04 #@! TF.ProjectId,Daughterboard,44617567-6874-4657-9262-6f6172642e6b,rev?*
G04 #@! TF.SameCoordinates,Original*
G04 #@! TF.FileFunction,Paste,Bot*
G04 #@! TF.FilePolarity,Positive*
%FSLAX46Y46*%
G04 Gerber Fmt 4.6, Leading zero omitted, Abs format (unit mm)*
G04 Created by KiCad (PCBNEW (5.1.6)-1) date 2022-01-22 19:31:02*
%MOMM*%
%LPD*%
G01*
G04 APERTURE LIST*
%ADD10R,1.524000X7.620000*%
G04 APERTURE END LIST*
D10*
G04 #@! TO.C,EDGE1*
X278193500Y-150114000D03*
X275653500Y-150114000D03*
X273113500Y-150114000D03*
X270573500Y-150114000D03*
X268033500Y-150114000D03*
X265493500Y-150114000D03*
X262953500Y-150114000D03*
X260413500Y-150114000D03*
X257873500Y-150114000D03*
X255333500Y-150114000D03*
X252793500Y-150114000D03*
X250253500Y-150114000D03*
X247713500Y-150114000D03*
X245173500Y-150114000D03*
X242633500Y-150114000D03*
X240093500Y-150114000D03*
X237553500Y-150114000D03*
X235013500Y-150114000D03*
X232473500Y-150114000D03*
X229933500Y-150114000D03*
X227393500Y-150114000D03*
X224853500Y-150114000D03*
X222313500Y-150114000D03*
X219773500Y-150114000D03*
X217233500Y-150114000D03*
X214693500Y-150114000D03*
X212153500Y-150114000D03*
X209613500Y-150114000D03*
X207073500Y-150114000D03*
X204533500Y-150114000D03*
X201993500Y-150114000D03*
X199453500Y-150114000D03*
X196913500Y-150114000D03*
X194373500Y-150114000D03*
X191833500Y-150114000D03*
X189293500Y-150114000D03*
X186753500Y-150114000D03*
X184213500Y-150114000D03*
X181673500Y-150114000D03*
X179133500Y-150114000D03*
X176593500Y-150114000D03*
X174053500Y-150114000D03*
X171513500Y-150114000D03*
X168973500Y-150114000D03*
X166433500Y-150114000D03*
X163893500Y-150114000D03*
X161353500Y-150114000D03*
X158813500Y-150114000D03*
X156273500Y-150114000D03*
X153733500Y-150114000D03*
G04 #@! TD*
G04 #@! TO.C,EDGE2*
X115062000Y-150114000D03*
X112522000Y-150114000D03*
X109982000Y-150114000D03*
X107442000Y-150114000D03*
X104902000Y-150114000D03*
X102362000Y-150114000D03*
X99822000Y-150114000D03*
X97282000Y-150114000D03*
X94742000Y-150114000D03*
X92202000Y-150114000D03*
X89662000Y-150114000D03*
X87122000Y-150114000D03*
X84582000Y-150114000D03*
X82042000Y-150114000D03*
X79502000Y-150114000D03*
X76962000Y-150114000D03*
X74422000Y-150114000D03*
X71882000Y-150114000D03*
X69342000Y-150114000D03*
X66802000Y-150114000D03*
X64262000Y-150114000D03*
X61722000Y-150114000D03*
X59182000Y-150114000D03*
X56642000Y-150114000D03*
X54102000Y-150114000D03*
X51562000Y-150114000D03*
X49022000Y-150114000D03*
X46482000Y-150114000D03*
X43942000Y-150114000D03*
X41402000Y-150114000D03*
X38862000Y-150114000D03*
X36322000Y-150114000D03*
X33782000Y-150114000D03*
X31242000Y-150114000D03*
X28702000Y-150114000D03*
X26162000Y-150114000D03*
X23622000Y-150114000D03*
X21082000Y-150114000D03*
X18542000Y-150114000D03*
X16002000Y-150114000D03*
X13462000Y-150114000D03*
X10922000Y-150114000D03*
X8382000Y-150114000D03*
G04 #@! TD*
M02*
