M48
METRIC,TZ
T1C0.700
T2C0.762
T3C0.800
T4C1.000
T5C1.200
%
G90
G05
T1
X133223Y-126913
X133223Y-129413
X28956Y-126913
X28956Y-129413
X39751Y-126913
X39751Y-129413
X88011Y-126913
X88011Y-129413
X34036Y-126913
X34036Y-129413
X82931Y-126913
X82931Y-129413
X18796Y-126913
X18796Y-129413
X117856Y-126913
X117856Y-129413
X21336Y-126913
X21336Y-129413
X62611Y-126913
X62611Y-129413
X102616Y-126913
X102616Y-129413
X44831Y-126913
X44831Y-129413
X72771Y-126913
X72771Y-129413
X57531Y-126913
X57531Y-129413
X105156Y-126913
X105156Y-129413
X54991Y-126913
X54991Y-129413
X107696Y-126913
X107696Y-129413
X60071Y-126913
X60071Y-129413
X75311Y-126913
X75311Y-129413
X23876Y-126913
X23876Y-129413
X128143Y-126913
X128143Y-129413
X67691Y-126913
X67691Y-129413
X115316Y-126913
X115316Y-129413
X47371Y-126913
X47371Y-129413
X80391Y-126913
X80391Y-129413
X100076Y-126913
X100076Y-129413
X49911Y-126913
X49911Y-129413
X110236Y-126913
X110236Y-129413
X42291Y-126913
X42291Y-129413
X70231Y-126913
X70231Y-129413
X85471Y-126913
X85471Y-129413
X135763Y-126913
X135763Y-129413
X138303Y-126913
X138303Y-129413
X26416Y-126913
X26416Y-129413
X125603Y-126913
X125603Y-129413
X52451Y-126913
X52451Y-129413
X77851Y-126913
X77851Y-129413
X130683Y-126913
X130683Y-129413
X140843Y-126913
X140843Y-129413
X16256Y-126913
X16256Y-129413
X31496Y-126913
X31496Y-129413
X123063Y-126913
X123063Y-129413
X65151Y-126913
X65151Y-129413
X112776Y-126913
X112776Y-129413
T2
X154686Y-96774
X154686Y-101854
X157226Y-96774
X157226Y-101854
X159766Y-96774
X159766Y-101854
X162306Y-96774
X162306Y-101854
X164846Y-96774
X164846Y-101854
X167386Y-96774
X167386Y-101854
X169926Y-96774
X169926Y-101854
X172466Y-96774
X172466Y-101854
X175006Y-96774
X175006Y-101854
X177546Y-96774
X177546Y-101854
X180086Y-96774
X180086Y-101854
X182626Y-96774
X182626Y-101854
X185166Y-96774
X185166Y-101854
X187706Y-96774
X187706Y-101854
X190246Y-96774
X190246Y-101854
X192786Y-96774
X192786Y-101854
X195326Y-96774
X195326Y-101854
X197866Y-96774
X197866Y-101854
X200406Y-96774
X200406Y-101854
X202946Y-96774
X202946Y-101854
X205486Y-96774
X205486Y-101854
X208026Y-96774
X208026Y-101854
X210566Y-96774
X210566Y-101854
X213106Y-96774
X213106Y-101854
X215646Y-96774
X215646Y-101854
X218186Y-96774
X218186Y-101854
X220726Y-96774
X220726Y-101854
X223266Y-96774
X223266Y-101854
X225806Y-96774
X225806Y-101854
X228346Y-96774
X228346Y-101854
X230886Y-96774
X230886Y-101854
X233426Y-96774
X233426Y-101854
X235966Y-96774
X235966Y-101854
X238506Y-96774
X238506Y-101854
X241046Y-96774
X241046Y-101854
X243586Y-96774
X243586Y-101854
X246126Y-96774
X246126Y-101854
X248666Y-96774
X248666Y-101854
X251206Y-96774
X251206Y-101854
X253746Y-96774
X253746Y-101854
X256286Y-96774
X256286Y-101854
X258826Y-96774
X258826Y-101854
X261366Y-96774
X261366Y-101854
X263906Y-96774
X263906Y-101854
X266446Y-96774
X266446Y-101854
X268986Y-96774
X268986Y-101854
X271526Y-96774
X271526Y-101854
X274066Y-96774
X274066Y-101854
X276606Y-96774
X276606Y-101854
X279146Y-96774
X279146Y-101854
X11811Y-117475
X11811Y-122555
X14351Y-117475
X14351Y-122555
X16891Y-117475
X16891Y-122555
X19431Y-117475
X19431Y-122555
X21971Y-117475
X21971Y-122555
X24511Y-117475
X24511Y-122555
X27051Y-117475
X27051Y-122555
X29591Y-117475
X29591Y-122555
X32131Y-117475
X32131Y-122555
X34671Y-117475
X34671Y-122555
X37211Y-117475
X37211Y-122555
X39751Y-117475
X39751Y-122555
X42291Y-117475
X42291Y-122555
X44831Y-117475
X44831Y-122555
X47371Y-117475
X47371Y-122555
X49911Y-117475
X49911Y-122555
X52451Y-117475
X52451Y-122555
X54991Y-117475
X54991Y-122555
X57531Y-117475
X57531Y-122555
X60071Y-117475
X60071Y-122555
X62611Y-117475
X62611Y-122555
X65151Y-117475
X65151Y-122555
X67691Y-117475
X67691Y-122555
X70231Y-117475
X70231Y-122555
X72771Y-117475
X72771Y-122555
X75311Y-117475
X75311Y-122555
X77851Y-117475
X77851Y-122555
X80391Y-117475
X80391Y-122555
X82931Y-117475
X82931Y-122555
X85471Y-117475
X85471Y-122555
X88011Y-117475
X88011Y-122555
X154686Y-65278
X167386Y-65278
X97536Y-117602
X97536Y-122682
X100076Y-117602
X100076Y-122682
X102616Y-117602
X102616Y-122682
X105156Y-117602
X105156Y-122682
X107696Y-117602
X107696Y-122682
X110236Y-117602
X110236Y-122682
X112776Y-117602
X112776Y-122682
X115316Y-117602
X115316Y-122682
X117856Y-117602
X117856Y-122682
X120396Y-117602
X120396Y-122682
X122936Y-117602
X122936Y-122682
X125476Y-117602
X125476Y-122682
X128016Y-117602
X128016Y-122682
X130556Y-117602
X130556Y-122682
X133096Y-117602
X133096Y-122682
X135636Y-117602
X135636Y-122682
X138176Y-117602
X138176Y-122682
X140716Y-117602
X140716Y-122682
X266446Y-129794
X279146Y-129794
X154686Y-138176
X154686Y-143256
X157226Y-138176
X157226Y-143256
X159766Y-138176
X159766Y-143256
X162306Y-138176
X162306Y-143256
X164846Y-138176
X164846Y-143256
X167386Y-138176
X167386Y-143256
X169926Y-138176
X169926Y-143256
X172466Y-138176
X172466Y-143256
X175006Y-138176
X175006Y-143256
X177546Y-138176
X177546Y-143256
X180086Y-138176
X180086Y-143256
X182626Y-138176
X182626Y-143256
X185166Y-138176
X185166Y-143256
X187706Y-138176
X187706Y-143256
X190246Y-138176
X190246Y-143256
X192786Y-138176
X192786Y-143256
X195326Y-138176
X195326Y-143256
X197866Y-138176
X197866Y-143256
X200406Y-138176
X200406Y-143256
X202946Y-138176
X202946Y-143256
X205486Y-138176
X205486Y-143256
X208026Y-138176
X208026Y-143256
X210566Y-138176
X210566Y-143256
X213106Y-138176
X213106Y-143256
X215646Y-138176
X215646Y-143256
X218186Y-138176
X218186Y-143256
X220726Y-138176
X220726Y-143256
X223266Y-138176
X223266Y-143256
X225806Y-138176
X225806Y-143256
X228346Y-138176
X228346Y-143256
X230886Y-138176
X230886Y-143256
X233426Y-138176
X233426Y-143256
X235966Y-138176
X235966Y-143256
X238506Y-138176
X238506Y-143256
X241046Y-138176
X241046Y-143256
X243586Y-138176
X243586Y-143256
X246126Y-138176
X246126Y-143256
X248666Y-138176
X248666Y-143256
X251206Y-138176
X251206Y-143256
X253746Y-138176
X253746Y-143256
X256286Y-138176
X256286Y-143256
X258826Y-138176
X258826Y-143256
X261366Y-138176
X261366Y-143256
X263906Y-138176
X263906Y-143256
X266446Y-138176
X266446Y-143256
X268986Y-138176
X268986Y-143256
X271526Y-138176
X271526Y-143256
X274066Y-138176
X274066Y-143256
X276606Y-138176
X276606Y-143256
X279146Y-138176
X279146Y-143256
X154686Y-117602
X154686Y-122682
X157226Y-117602
X157226Y-122682
X159766Y-117602
X159766Y-122682
X162306Y-117602
X162306Y-122682
X164846Y-117602
X164846Y-122682
X167386Y-117602
X167386Y-122682
X169926Y-117602
X169926Y-122682
X172466Y-117602
X172466Y-122682
X175006Y-117602
X175006Y-122682
X177546Y-117602
X177546Y-122682
X180086Y-117602
X180086Y-122682
X182626Y-117602
X182626Y-122682
X185166Y-117602
X185166Y-122682
X187706Y-117602
X187706Y-122682
X190246Y-117602
X190246Y-122682
X192786Y-117602
X192786Y-122682
X195326Y-117602
X195326Y-122682
X197866Y-117602
X197866Y-122682
X200406Y-117602
X200406Y-122682
X202946Y-117602
X202946Y-122682
X205486Y-117602
X205486Y-122682
X208026Y-117602
X208026Y-122682
X210566Y-117602
X210566Y-122682
X213106Y-117602
X213106Y-122682
X215646Y-117602
X215646Y-122682
X218186Y-117602
X218186Y-122682
X220726Y-117602
X220726Y-122682
X223266Y-117602
X223266Y-122682
X225806Y-117602
X225806Y-122682
X228346Y-117602
X228346Y-122682
X230886Y-117602
X230886Y-122682
X233426Y-117602
X233426Y-122682
X235966Y-117602
X235966Y-122682
X238506Y-117602
X238506Y-122682
X241046Y-117602
X241046Y-122682
X243586Y-117602
X243586Y-122682
X246126Y-117602
X246126Y-122682
X248666Y-117602
X248666Y-122682
X251206Y-117602
X251206Y-122682
X253746Y-117602
X253746Y-122682
X256286Y-117602
X256286Y-122682
X258826Y-117602
X258826Y-122682
X261366Y-117602
X261366Y-122682
X263906Y-117602
X263906Y-122682
X266446Y-117602
X266446Y-122682
X268986Y-117602
X268986Y-122682
X271526Y-117602
X271526Y-122682
X274066Y-117602
X274066Y-122682
X276606Y-117602
X276606Y-122682
X279146Y-117602
X279146Y-122682
X199898Y-65278
X211074Y-65278
X11811Y-96647
X11811Y-101727
X14351Y-96647
X14351Y-101727
X16891Y-96647
X16891Y-101727
X19431Y-96647
X19431Y-101727
X21971Y-96647
X21971Y-101727
X24511Y-96647
X24511Y-101727
X27051Y-96647
X27051Y-101727
X29591Y-96647
X29591Y-101727
X32131Y-96647
X32131Y-101727
X34671Y-96647
X34671Y-101727
X37211Y-96647
X37211Y-101727
X39751Y-96647
X39751Y-101727
X42291Y-96647
X42291Y-101727
X44831Y-96647
X44831Y-101727
X47371Y-96647
X47371Y-101727
X49911Y-96647
X49911Y-101727
X52451Y-96647
X52451Y-101727
X54991Y-96647
X54991Y-101727
X57531Y-96647
X57531Y-101727
X60071Y-96647
X60071Y-101727
X62611Y-96647
X62611Y-101727
X65151Y-96647
X65151Y-101727
X67691Y-96647
X67691Y-101727
X70231Y-96647
X70231Y-101727
X72771Y-96647
X72771Y-101727
X75311Y-96647
X75311Y-101727
X77851Y-96647
X77851Y-101727
X80391Y-96647
X80391Y-101727
X82931Y-96647
X82931Y-101727
X85471Y-96647
X85471Y-101727
X88011Y-96647
X88011Y-101727
X154686Y-75946
X154686Y-81026
X157226Y-75946
X157226Y-81026
X159766Y-75946
X159766Y-81026
X162306Y-75946
X162306Y-81026
X164846Y-75946
X164846Y-81026
X167386Y-75946
X167386Y-81026
X169926Y-75946
X169926Y-81026
X172466Y-75946
X172466Y-81026
X175006Y-75946
X175006Y-81026
X177546Y-75946
X177546Y-81026
X180086Y-75946
X180086Y-81026
X182626Y-75946
X182626Y-81026
X185166Y-75946
X185166Y-81026
X187706Y-75946
X187706Y-81026
X190246Y-75946
X190246Y-81026
X192786Y-75946
X192786Y-81026
X195326Y-75946
X195326Y-81026
X197866Y-75946
X197866Y-81026
X200406Y-75946
X200406Y-81026
X202946Y-75946
X202946Y-81026
X205486Y-75946
X205486Y-81026
X208026Y-75946
X208026Y-81026
X210566Y-75946
X210566Y-81026
X213106Y-75946
X213106Y-81026
X215646Y-75946
X215646Y-81026
X218186Y-75946
X218186Y-81026
X220726Y-75946
X220726Y-81026
X223266Y-75946
X223266Y-81026
X225806Y-75946
X225806Y-81026
X228346Y-75946
X228346Y-81026
X230886Y-75946
X230886Y-81026
X233426Y-75946
X233426Y-81026
X235966Y-75946
X235966Y-81026
X238506Y-75946
X238506Y-81026
X241046Y-75946
X241046Y-81026
X243586Y-75946
X243586Y-81026
X246126Y-75946
X246126Y-81026
X248666Y-75946
X248666Y-81026
X251206Y-75946
X251206Y-81026
X253746Y-75946
X253746Y-81026
X256286Y-75946
X256286Y-81026
X258826Y-75946
X258826Y-81026
X261366Y-75946
X261366Y-81026
X263906Y-75946
X263906Y-81026
X266446Y-75946
X266446Y-81026
X268986Y-75946
X268986Y-81026
X271526Y-75946
X271526Y-81026
X274066Y-75946
X274066Y-81026
X276606Y-75946
X276606Y-81026
X279146Y-75946
X279146Y-81026
X216281Y-65278
X228981Y-65278
X97536Y-96774
X97536Y-101854
X100076Y-96774
X100076Y-101854
X102616Y-96774
X102616Y-101854
X105156Y-96774
X105156Y-101854
X107696Y-96774
X107696Y-101854
X110236Y-96774
X110236Y-101854
X112776Y-96774
X112776Y-101854
X115316Y-96774
X115316Y-101854
X117856Y-96774
X117856Y-101854
X120396Y-96774
X120396Y-101854
X122936Y-96774
X122936Y-101854
X125476Y-96774
X125476Y-101854
X128016Y-96774
X128016Y-101854
X130556Y-96774
X130556Y-101854
X133096Y-96774
X133096Y-101854
X135636Y-96774
X135636Y-101854
X138176Y-96774
X138176Y-101854
X140716Y-96774
X140716Y-101854
T3
X5588Y-141073
X5612Y-98020
X5612Y-119102
X7112Y-99822
X7112Y-120904
X7112Y-137160
X8636Y-144018
X8890Y-105156
X8890Y-126746
X11176Y-144653
X13716Y-144653
X16002Y-140970
X18161Y-144653
X20701Y-144653
X23876Y-144653
X26670Y-144653
X28956Y-142748
X32004Y-67310
X32131Y-142748
X33401Y-144653
X36576Y-142748
X39116Y-144653
X41656Y-144653
X43561Y-142748
X45466Y-144018
X47371Y-142748
X49276Y-144653
X51816Y-144653
X54356Y-144653
X56896Y-144653
X59436Y-144653
X61976Y-144653
X64516Y-144653
X67056Y-144653
X67310Y-68810
X72136Y-144653
X74422Y-142240
X74676Y-144653
X77216Y-144653
X79756Y-144653
X82296Y-144653
X84836Y-144653
X86360Y-143256
X87376Y-144780
X89916Y-144653
X92456Y-144653
X94996Y-144653
X97536Y-144653
X100076Y-144526
X100711Y-140843
X101346Y-90424
X103124Y-139192
X105156Y-144653
X107442Y-144526
X109982Y-144526
X112522Y-144526
X115062Y-144526
X135636Y-73406
X136906Y-86868
X139446Y-87630
X147574Y-80772
X147574Y-94742
X148336Y-119610
X149606Y-84582
X149606Y-89408
X149606Y-104902
X150368Y-134493
X151130Y-70104
X151130Y-93218
X151130Y-112014
X153162Y-106680
X154686Y-136398
X155956Y-84836
X156972Y-132334
X158496Y-124206
X161290Y-145034
X162306Y-83185
X163576Y-110935
X163576Y-125984
X163830Y-68580
X163830Y-145034
X164846Y-85217
X164846Y-119634
X164846Y-128524
X165862Y-88646
X166370Y-132334
X167386Y-98933
X168656Y-73406
X168656Y-88646
X168656Y-108712
X176784Y-145034
X177546Y-105664
X214376Y-83312
X228346Y-88900
X229362Y-104394
X229362Y-107950
X229616Y-92710
X233426Y-92710
X233426Y-109728
X277876Y-84074
X279146Y-104140
X279146Y-125476
X145796Y-83178
X145796Y-90678
X43561Y-139573
X48561Y-139573
X172466Y-65278
X175006Y-65278
X177546Y-65278
X180086Y-65278
X182626Y-65278
X185166Y-65278
X187706Y-65278
X190246Y-65278
X192786Y-65278
X195326Y-65278
X260350Y-63493
X260350Y-70993
X8636Y-139446
X13636Y-139446
X115316Y-86360
X120316Y-86360
X11176Y-133223
X13716Y-133223
X16256Y-133223
X18796Y-133223
X21336Y-133223
X23876Y-133223
X26416Y-133223
X28956Y-133223
X31496Y-133223
X34036Y-133223
X19558Y-139192
X24558Y-139192
X260096Y-88138
X262636Y-88138
X265176Y-88138
X267716Y-88138
X270256Y-88138
X272796Y-88138
X6096Y-72898
X6096Y-75438
X6096Y-77978
X6096Y-80518
X6096Y-83058
X6096Y-85598
X6096Y-88138
X13716Y-72898
X13716Y-75438
X13716Y-77978
X13716Y-80518
X13716Y-83058
X13716Y-85598
X13716Y-88138
X233426Y-70104
X235966Y-70104
X238506Y-70104
X241046Y-70104
X243586Y-70104
X246126Y-70104
X248666Y-70104
X251206Y-70104
X253746Y-70104
X256286Y-70104
X117856Y-137160
X120396Y-137160
X122936Y-137160
X125476Y-137160
X128016Y-137160
X130556Y-137160
X133096Y-137160
X135636Y-137160
X138176Y-137160
X140716Y-137160
X180086Y-70104
X182626Y-70104
X185166Y-70104
X187706Y-70104
X190246Y-70104
X192786Y-70104
X195326Y-70104
X197866Y-70104
X200406Y-70104
X202946Y-70104
X263906Y-63373
X263906Y-70993
X266446Y-63373
X266446Y-70993
X268986Y-63373
X268986Y-70993
X271526Y-63373
X271526Y-70993
X274066Y-63373
X274066Y-70993
X276606Y-63373
X276606Y-70993
X279146Y-63373
X279146Y-70993
X27051Y-90424
X29591Y-90424
X32131Y-90424
X34671Y-90424
X37211Y-90424
X39751Y-90424
X42291Y-90424
X44831Y-90424
X47371Y-90424
X49911Y-90424
X206756Y-70104
X209296Y-70104
X211836Y-70104
X214376Y-70104
X216916Y-70104
X219456Y-70104
X221996Y-70104
X224536Y-70104
X227076Y-70104
X229616Y-70104
X65151Y-133223
X67691Y-133223
X70231Y-133223
X72771Y-133223
X75311Y-133223
X77851Y-133223
X80391Y-133223
X82931Y-133223
X85471Y-133223
X88011Y-133223
X38481Y-133223
X41021Y-133223
X43561Y-133223
X46101Y-133223
X48641Y-133223
X51181Y-133223
X53721Y-133223
X56261Y-133223
X58801Y-133223
X61341Y-133223
X28956Y-139573
X33956Y-139573
X199136Y-88900
X201676Y-88900
X204216Y-88900
X206756Y-88900
X209296Y-88900
X211836Y-88900
X214376Y-88900
X216916Y-88900
X219456Y-88900
X221996Y-88900
X6096Y-91694
X13596Y-91694
X129286Y-78232
X131826Y-78232
X134366Y-78232
X136906Y-78232
X139446Y-78232
X141986Y-78232
X149606Y-109093
X154606Y-109093
X233680Y-64643
X236220Y-64643
X238760Y-64643
X241300Y-64643
X243840Y-64643
X246380Y-64643
X248920Y-64643
X251460Y-64643
X254000Y-64643
X256540Y-64643
X97536Y-133223
X100076Y-133223
X102616Y-133223
X105156Y-133223
X107696Y-133223
X110236Y-133223
X112776Y-133223
X115316Y-133223
X117856Y-133223
X120396Y-133223
X126746Y-83058
X126746Y-90678
X129286Y-83058
X129286Y-90678
X131826Y-83058
X131826Y-90678
X134366Y-83058
X134366Y-90678
X136906Y-83058
X136906Y-90678
X139446Y-83058
X139446Y-90678
X141986Y-83058
X141986Y-90678
T4
X74549Y-75565
X74549Y-80645
X77089Y-75565
X77089Y-80645
X79629Y-75565
X79629Y-80645
X82169Y-75565
X82169Y-80645
X84709Y-75565
X84709Y-80645
X87249Y-75565
X87249Y-80645
X89789Y-75565
X89789Y-80645
X92329Y-75565
X92329Y-80645
X94869Y-75565
X94869Y-80645
X97409Y-75565
X97409Y-80645
X99949Y-75565
X99949Y-80645
X102489Y-75565
X102489Y-80645
X105029Y-75565
X105029Y-80645
X107569Y-75565
X107569Y-80645
X110109Y-75565
X110109Y-80645
X112649Y-75565
X112649Y-80645
X115189Y-75565
X115189Y-80645
X117729Y-75565
X117729Y-80645
X21844Y-75565
X21844Y-80645
X24384Y-75565
X24384Y-80645
X26924Y-75565
X26924Y-80645
X29464Y-75565
X29464Y-80645
X32004Y-75565
X32004Y-80645
X34544Y-75565
X34544Y-80645
X37084Y-75565
X37084Y-80645
X39624Y-75565
X39624Y-80645
X42164Y-75565
X42164Y-80645
X44704Y-75565
X44704Y-80645
X47244Y-75565
X47244Y-80645
X49784Y-75565
X49784Y-80645
X52324Y-75565
X52324Y-80645
X54864Y-75565
X54864Y-80645
X57404Y-75565
X57404Y-80645
X59944Y-75565
X59944Y-80645
X62484Y-75565
X62484Y-80645
X65024Y-75565
X65024Y-80645
T5
X159258Y-88900
X187258Y-88900
X55626Y-139192
X83626Y-139192
X159258Y-109728
X187258Y-109728
X159258Y-130429
X187258Y-130429
T0
M30
